# xmcd
#
# Track frame offsets:
#	150
#	8990
#	23407
#	29347
#	35145
#	46812
#	56328
#	58961
#	69492
#	77424
#	86508
#	96031
#
# Disc length: 1800 seconds
#
# Revision: 1
# Processed by: cddbd v1.5.1PL0 Copyright (c) Steve Scherf et al.
# Submitted via: CDex 1.50Beta5
#
DISCID=8c07060c
DTITLE=DISGUSTEENS - SONGS FOR SWINGING LOSERS
DYEAR=1900
DGENRE=Rock
TTITLE0=LITTLE DEUCE MY VOICE
TTITLE1=LOVE STORY OF PUNK ROCKER
TTITLE2=CAN YOU GO TO HELL WITH ME?
TTITLE3=THANK YOU, STEVE!
TTITLE4=USA
TTITLE5=トラック6
TTITLE6=SHORT SONG
TTITLE7=トラック8
TTITLE8=FUCKI'N LOVE
TTITLE9=I'M STILL IN A PUNK BAND
TTITLE10=FUCKI'N JOB TONIGHT
TTITLE11=トラック12
EXTD=
EXTT0=
EXTT1=
EXTT2=
EXTT3=
EXTT4=
EXTT5=
EXTT6=
EXTT7=
EXTT8=
EXTT9=
EXTT10=
EXTT11=
PLAYORDER=
